<svg xmlns="http://www.w3.org/2000/svg" width="201.88" height="172" viewBox="0 0 201.88 172">
  <g id="Group_1" data-name="Group 1" transform="translate(-105.12 -175.53)">
    <path id="Path_2" data-name="Path 2" d="M214.706,303.158" transform="translate(-4.65 -28.015)" fill="none" stroke="#707070" stroke-width="1"/>
    <g id="Ellipse_1" data-name="Ellipse 1" transform="translate(142 183.53)" fill="#120101" stroke="#fff" stroke-width="1">
      <ellipse cx="76.5" cy="82" rx="76.5" ry="82" stroke="none"/>
      <ellipse cx="76.5" cy="82" rx="76" ry="81.5" fill="none"/>
    </g>
    <ellipse id="Ellipse_2" data-name="Ellipse 2" cx="58" cy="70.5" rx="58" ry="70.5" transform="translate(191 175.53)" fill="#fff"/>
    <path id="Path_3" data-name="Path 3" d="M70.066,325.776s4.068-24.2,26.929-8.142,36.168-4.493,36.168-4.493,60.681-20.7,51.048,4.493-48.354,64.953-71.031,53.7-7.659,13.245-34.73,0-63.5-8.421-37.09-19.888,12.519-19.226,28.706-25.67" transform="translate(73.421 -39.61)" fill="#080101" stroke="#f7f2f2" stroke-width="1"/>
    <g id="Ellipse_3" data-name="Ellipse 3" transform="translate(220 235.53)" fill="#050000" stroke="#707070" stroke-width="1">
      <ellipse cx="5.5" cy="6" rx="5.5" ry="6" stroke="none"/>
      <ellipse cx="5.5" cy="6" rx="5" ry="5.5" fill="none"/>
    </g>
  </g>
</svg>
